<?xml version="1.0" encoding="utf-8"?>
<!-- Generator: Adobe Illustrator 15.1.0, SVG Export Plug-In . SVG Version: 6.00 Build 0)  -->
<!DOCTYPE svg PUBLIC "-//W3C//DTD SVG 1.1//EN" "http://www.w3.org/Graphics/SVG/1.1/DTD/svg11.dtd">
<svg version="1.1"
	 xmlns="http://www.w3.org/2000/svg" xmlns:xlink="http://www.w3.org/1999/xlink" x="0px" y="0px" width="671.6px" height="665.3px"
	 viewBox="149.8 332.3 671.6 665.3" enable-background="new 149.8 332.3 671.6 665.3" xml:space="preserve">
<g id="transp">
	<g id="g2876">
		<path id="arrowleft" d="M461,423.4l1.3-1l0,0l0.3,0.5l0.3,0.5l0.3,0.5l0.3,0.5l0.2,0.5l0.2,0.5l0.2,0.5l0.2,0.5l0.2,0.5l0.1,0.5
			l0.1,0.5l0.1,0.5l0.1,0.5l0,0.5l0,0.5l0,0.5l0,0.5l0,0.5l-0.1,0.5l-0.1,0.5l-0.1,0.5l-0.1,0.5l-0.1,0.5l-0.2,0.5l-0.2,0.5
			l-0.2,0.5l-0.2,0.5l-0.2,0.5l-0.2,0.5l-0.3,0.5l-0.3,0.5l-0.3,0.5l-1.4-0.9l0.3-0.4l0.2-0.4l0.2-0.4l0.2-0.4l0.2-0.4l0.2-0.4
			l0.2-0.4l0.2-0.4l0.1-0.4l0.1-0.4l0.1-0.4l0.1-0.4l0.1-0.4l0.1-0.4l0-0.4l0-0.4l0-0.4l0-0.4l0-0.4l-0.1-0.4l-0.1-0.4l-0.1-0.4
			l-0.1-0.4l-0.1-0.4l-0.2-0.4l-0.2-0.4l-0.2-0.4l-0.2-0.4l-0.2-0.4l-0.3-0.4l-0.3-0.4L461,423.4L461,423.4L461,423.4z M461,408.9
			l1.3,1.1l0,0l-0.3,0.4l-0.3,0.4l-0.3,0.4l-0.3,0.4l-0.2,0.4l-0.2,0.4l-0.2,0.4l-0.2,0.4l-0.2,0.3l-0.1,0.3l-0.1,0.3l-0.1,0.3
			l-0.1,0.3l-0.1,0.3l0,0.3l0,0.3l0,0.4l0,0.4l0,0.4l0.1,0.4l0.1,0.4l0.1,0.4l0.1,0.4l0.2,0.4l0.2,0.4l0.2,0.4l0.2,0.4l0.3,0.5
			l0.3,0.5l0.3,0.5l0.3,0.5l0.4,0.5l-1.3,1l-0.4-0.5l-0.4-0.5l-0.3-0.5l-0.3-0.5l-0.3-0.5l-0.3-0.5l-0.2-0.5l-0.2-0.5l-0.2-0.5
			l-0.2-0.5l-0.1-0.5l-0.1-0.5l-0.1-0.5l0-0.5l0-0.5l0-0.4l0-0.4l0.1-0.4l0.1-0.4l0.1-0.4l0.1-0.4l0.1-0.4l0.2-0.4l0.2-0.4l0.2-0.4
			l0.2-0.4l0.2-0.4l0.3-0.4l0.3-0.4l0.3-0.4l0.3-0.4L461,408.9L461,408.9L461,408.9z M460.8,397.2h1.7l0,0l0,0.4l0,0.4l0,0.4
			l0.1,0.4l0.1,0.4l0.1,0.4l0.1,0.4l0.1,0.4l0.1,0.4l0.1,0.4l0.1,0.4l0.1,0.4l0.1,0.4l0.1,0.4l0.1,0.4l0.1,0.4l0.1,0.4l0.1,0.4
			l0,0.4l0,0.4l0,0.4l0,0.4l0,0.4l-0.1,0.4l-0.1,0.4l-0.1,0.4l-0.1,0.4l-0.2,0.4l-0.2,0.4l-0.2,0.4l-0.3,0.4l-0.3,0.4l-1.3-1.1
			l0.3-0.3l0.2-0.3l0.2-0.3l0.2-0.3l0.1-0.3l0.1-0.3l0.1-0.3l0.1-0.3l0-0.3l0-0.3l0-0.3l0-0.3l0-0.3l0-0.3l-0.1-0.3l-0.1-0.3
			l-0.1-0.4l-0.1-0.4l-0.1-0.4l-0.1-0.4l-0.1-0.4l-0.1-0.4l-0.1-0.4l-0.1-0.4l-0.1-0.4l-0.1-0.4l-0.1-0.4l-0.1-0.4l-0.1-0.5l0-0.5
			l0-0.5L460.8,397.2L460.8,397.2L460.8,397.2z M462.5,393.8L462.5,393.8v3.4h-1.7v-3.4H462.5z M460.8,393.8L460.8,393.8
			L460.8,393.8L460.8,393.8z M462.5,393.3v0.5h-1.7v-0.5H462.5z M457.2,394l4.4-8l4.4,8H457.2z"/>
	</g>
	<g id="g2879">
		<path id="arrowcentre" d="M485.8,423.4l1.3-1l0,0l0.3,0.5l0.3,0.5l0.3,0.5l0.3,0.5l0.2,0.5l0.2,0.5l0.2,0.5l0.2,0.5l0.2,0.5
			l0.1,0.5l0.1,0.5l0.1,0.5l0.1,0.5l0,0.5l0,0.5l0,0.5l0,0.5l0,0.5l-0.1,0.5l-0.1,0.5l-0.1,0.5l-0.1,0.5l-0.1,0.5l-0.2,0.5l-0.2,0.5
			l-0.2,0.5l-0.2,0.5l-0.2,0.5l-0.2,0.5l-0.3,0.5l-0.3,0.5l-0.3,0.5l-1.4-0.9l0.3-0.4l0.2-0.4l0.2-0.4l0.2-0.4l0.2-0.4l0.2-0.4
			l0.2-0.4l0.2-0.4l0.1-0.4l0.1-0.4l0.1-0.4l0.1-0.4l0.1-0.4l0.1-0.4l0-0.4l0-0.4l0-0.4l0-0.4l0-0.4l-0.1-0.4l-0.1-0.4l-0.1-0.4
			l-0.1-0.4l-0.1-0.4l-0.2-0.4l-0.2-0.4l-0.2-0.4l-0.2-0.4l-0.2-0.4l-0.3-0.4l-0.3-0.4L485.8,423.4L485.8,423.4L485.8,423.4z
			 M485.8,408.9l1.3,1.1l0,0l-0.3,0.4l-0.3,0.4l-0.3,0.4l-0.3,0.4l-0.2,0.4l-0.2,0.4l-0.2,0.4l-0.2,0.4l-0.2,0.3l-0.1,0.3l-0.1,0.3
			l-0.1,0.3l-0.1,0.3l-0.1,0.3l0,0.3l0,0.3l0,0.4l0,0.4l0,0.4l0.1,0.4l0.1,0.4l0.1,0.4l0.1,0.4l0.2,0.4l0.2,0.4l0.2,0.4l0.2,0.4
			l0.3,0.5l0.3,0.5l0.3,0.5l0.3,0.5l0.4,0.5l-1.3,1l-0.4-0.5l-0.4-0.5l-0.3-0.5l-0.3-0.5l-0.3-0.5l-0.3-0.5l-0.2-0.5l-0.2-0.5
			l-0.2-0.5l-0.2-0.5l-0.1-0.5l-0.1-0.5l-0.1-0.5l0-0.5l0-0.5l0-0.4l0-0.4l0.1-0.4l0.1-0.4l0.1-0.4l0.1-0.4l0.1-0.4l0.2-0.4l0.2-0.4
			l0.2-0.4l0.2-0.4l0.2-0.4l0.3-0.4l0.3-0.4l0.3-0.4l0.3-0.4L485.8,408.9L485.8,408.9L485.8,408.9z M485.6,397.2h1.7l0,0l0,0.4
			l0,0.4l0,0.4l0.1,0.4l0.1,0.4l0.1,0.4l0.1,0.4l0.1,0.4l0.1,0.4l0.1,0.4l0.1,0.4l0.1,0.4l0.1,0.4l0.1,0.4l0.1,0.4l0.1,0.4l0.1,0.4
			l0.1,0.4l0,0.4l0,0.4l0,0.4l0,0.4l0,0.4l-0.1,0.4l-0.1,0.4l-0.1,0.4l-0.1,0.4l-0.2,0.4l-0.2,0.4l-0.2,0.4l-0.3,0.4l-0.3,0.4
			l-1.3-1.1l0.3-0.3l0.2-0.3l0.2-0.3l0.2-0.3l0.1-0.3l0.1-0.3l0.1-0.3l0.1-0.3l0-0.3l0-0.3l0-0.3l0-0.3l0-0.3l0-0.3l-0.1-0.3
			l-0.1-0.3l-0.1-0.4l-0.1-0.4l-0.1-0.4l-0.1-0.4l-0.1-0.4l-0.1-0.4l-0.1-0.4l-0.1-0.4l-0.1-0.4l-0.1-0.4l-0.1-0.4l-0.1-0.4
			l-0.1-0.5l0-0.5l0-0.5L485.6,397.2L485.6,397.2L485.6,397.2z M487.3,393.8L487.3,393.8v3.4h-1.7v-3.4H487.3z M485.6,393.8
			L485.6,393.8L485.6,393.8L485.6,393.8z M487.3,393.3v0.5h-1.7v-0.5H487.3z M482,394l4.4-8l4.4,8H482z"/>
	</g>
	<g id="g2882">
		<path id="arrowright" d="M510.6,423.4l1.3-1l0,0l0.3,0.5l0.3,0.5l0.3,0.5l0.3,0.5l0.2,0.5l0.2,0.5l0.2,0.5l0.2,0.5l0.2,0.5
			l0.1,0.5l0.1,0.5l0.1,0.5l0.1,0.5l0,0.5l0,0.5l0,0.5l0,0.5l0,0.5l-0.1,0.5l-0.1,0.5l-0.1,0.5l-0.1,0.5l-0.1,0.5l-0.2,0.5l-0.2,0.5
			l-0.2,0.5l-0.2,0.5l-0.2,0.5l-0.2,0.5l-0.3,0.5l-0.3,0.5l-0.3,0.5l-1.4-0.9l0.3-0.4l0.2-0.4l0.2-0.4l0.2-0.4l0.2-0.4l0.2-0.4
			l0.2-0.4l0.2-0.4l0.1-0.4l0.1-0.4l0.1-0.4l0.1-0.4l0.1-0.4l0.1-0.4l0-0.4l0-0.4l0-0.4l0-0.4l0-0.4l-0.1-0.4l-0.1-0.4l-0.1-0.4
			l-0.1-0.4l-0.1-0.4l-0.2-0.4l-0.2-0.4l-0.2-0.4l-0.2-0.4l-0.2-0.4l-0.3-0.4l-0.3-0.4L510.6,423.4L510.6,423.4L510.6,423.4z
			 M510.6,408.9l1.3,1.1l0,0l-0.3,0.4l-0.3,0.4l-0.3,0.4l-0.3,0.4l-0.2,0.4l-0.2,0.4l-0.2,0.4l-0.2,0.4l-0.2,0.3l-0.1,0.3l-0.1,0.3
			l-0.1,0.3l-0.1,0.3l-0.1,0.3l0,0.3l0,0.3l0,0.4l0,0.4l0,0.4l0.1,0.4l0.1,0.4l0.1,0.4l0.1,0.4l0.2,0.4l0.2,0.4l0.2,0.4l0.2,0.4
			l0.3,0.5l0.3,0.5l0.3,0.5l0.3,0.5l0.4,0.5l-1.3,1l-0.4-0.5l-0.4-0.5l-0.3-0.5l-0.3-0.5l-0.3-0.5l-0.3-0.5l-0.2-0.5l-0.2-0.5
			l-0.2-0.5l-0.2-0.5l-0.1-0.5l-0.1-0.5l-0.1-0.5l0-0.5l0-0.5l0-0.4l0-0.4l0.1-0.4l0.1-0.4l0.1-0.4l0.1-0.4l0.1-0.4l0.2-0.4l0.2-0.4
			l0.2-0.4l0.2-0.4l0.2-0.4l0.3-0.4l0.3-0.4l0.3-0.4l0.3-0.4L510.6,408.9L510.6,408.9L510.6,408.9z M510.4,397.2h1.7l0,0l0,0.4
			l0,0.4l0,0.4l0.1,0.4l0.1,0.4l0.1,0.4l0.1,0.4l0.1,0.4l0.1,0.4l0.1,0.4l0.1,0.4l0.1,0.4l0.1,0.4l0.1,0.4l0.1,0.4l0.1,0.4l0.1,0.4
			l0.1,0.4l0,0.4l0,0.4l0,0.4l0,0.4l0,0.4l-0.1,0.4l-0.1,0.4l-0.1,0.4l-0.1,0.4l-0.2,0.4l-0.2,0.4l-0.2,0.4l-0.3,0.4l-0.3,0.4
			l-1.3-1.1l0.3-0.3l0.2-0.3l0.2-0.3l0.2-0.3l0.1-0.3l0.1-0.3l0.1-0.3l0.1-0.3l0-0.3l0-0.3l0-0.3l0-0.3l0-0.3l0-0.3l-0.1-0.3
			l-0.1-0.3l-0.1-0.4l-0.1-0.4l-0.1-0.4l-0.1-0.4l-0.1-0.4l-0.1-0.4l-0.1-0.4l-0.1-0.4l-0.1-0.4l-0.1-0.4l-0.1-0.4l-0.1-0.4
			l-0.1-0.5l0-0.5l0-0.5L510.4,397.2L510.4,397.2L510.4,397.2z M512.1,393.8L512.1,393.8v3.4h-1.7v-3.4H512.1z M510.4,393.8
			L510.4,393.8L510.4,393.8L510.4,393.8z M512.1,393.3v0.5h-1.7v-0.5H512.1z M506.8,394l4.4-8l4.4,8H506.8z"/>
	</g>
</g>
<path id="grass" fill="#33CC33" d="M455.8,523.4c0-2.2,0.7-5.3,2.3-2c1.5,3.1,2.1-4.4,2.8-4.2c0.2,0,1.3,3.8,1.7,4.3
	c0.7,1.1,2.1-0.2,3.3-2c1.3-2.1,3.1,5.6,3.1,1.2c0-4.3,1.2-0.2,2.5,1.2c0.8,1,0.4-6.6,1.4-4c1.2,3.2,5.2,6.5,5.6,2
	c0.1-1.7,4.4,3.9,5.4,0.9c2-5.7,2.8,2.5,3.9,1.2c3.2-4,2.7-2.4,6.2,0c0.5,0.4,2.7-4.4,2.9-4.3c1.2,0.1,3.3,8,3.3,1.7
	c0-5.7,0.7-1.7,1.5,1.1c1.9,6.6,0.1-3.1,1.9-0.9c3.3,4.2,3.3-2.8,3.3,1.4c0,3.8,2.9-3.2,7.7,0.3c1.1,0.8,1-4.9,2.8-0.9
	c1,2.3,3.2,1.9,5,3.1c0.6,0.4,0.9-2.5,1.4-1.9c5.4,6.5,3.4-6.6,3.4-5.3c0,2.2,0.7,4.5,0.9,6.8c0.3,4.5,1.1-3,1.1-4
	c0-6,1.9-7,0.9-1.4c-1.3,7,3,8.4-4.2,8.2l-34.4-0.9C487.2,525,454.3,525,455.8,523.4L455.8,523.4z"/>
<path id="perm" fill="#9FD9ED" stroke="#000"  stroke-width=".5" d="M159.5,510.3c127.7,11.3,253.7,21.3,364.2,20.5
	c3,0,7.5,2.8,10.3,3.9c12.3,5.3,22.2,3.8,32-1c5.6-2.7,12.5-4.3,18.6-4.6c87-4.4,161.5-17.6,215.5-45.2L696.4,706.2l-519.3-10.5
	L159.5,510.3L159.5,510.3z"/>
<g id="semi">
	<path id="semi_0" fill="#4794C4" stroke="#000"  stroke-width="1.5" d="M603.8,587.4c53.3-0.1,106.6-0.3,159.8-0.4
		C710.4,587.1,657.1,587.3,603.8,587.4c53.3-0.1,106.6-0.3,159.8-0.4c2.4-5.7,4.9-11.4,7.3-17.1c-21.2,0.2-42.3,0.4-63.5,0.6
		c-35.5-0.6-68.3,0.5-96.4,4.4c-26.4,5.3-73,10.6-140.6-2.4c-23,0.5-45.9,0.9-68.9,1.4c-26.4-3.9-46.2-5.8-63.1-6.8
		c-31.3,2.1-63.3,2-96.8-2.4c-30.6-5.7-58-6.5-83.4-4.1c1.5,8.7,6.1,14.1,14.2,16.7c56,6,119.2,13.5,183.7,13.1
		c45.7-1.5,91.3,0.8,137,3.4c22.8,3.2,47.1,3.6,74.3-1.7C580.7,588.5,592.7,587.1,603.8,587.4L603.8,587.4z"/>
	<path id="path2889" fill="none" stroke="#074A91"  stroke-width="1.5" d="M246.2,570.2h6.4 M224.9,581.4h6.4 M230,578.5h6.4
		 M218.9,563.9h6.4 M224.2,572.5h6.4 M222.7,569.2h6.4 M185.5,563.5h6.4 M194.5,577.3h6.4 M213.3,568.2h6.4 M212.4,575.5h6.4
		 M206.3,578.9h6.4 M200.8,573.3h6.4 M222.5,575.7h6.4 M217.9,578.3h6.4 M210.9,571h6.4 M189.3,568.8h6.4 M198.2,561.8h6.4
		 M195.6,564.8h6.4 M200.9,568.2h6.4 M207.2,564.3h6.4 M179.2,567h6.4 M176.2,574.5h6.4 M166.7,572.2h6.4 M189.6,573h6.4
		 M183.6,576.5h6.4 M177.8,571h6.4 M161.5,563.7h6.4 M166.8,567h6.4 M173.1,563.1h6.4 M735.1,575.4h6.4 M754.9,584h6.4 M738.9,580.7
		h6.4 M749.2,573.6h6.4 M745.2,576.8h6.4 M740.8,572.7h6.4 M752.2,580.1h6.4 M760.8,573h6.4 M756.8,576.2h6.4 M701,574.2h6.4
		 M706.3,584.6h6.4 M728.8,578.9h6.4 M716.3,584.1h6.4 M743.4,584.2h6.4 M727.4,582.9h6.4 M703.4,580.6h6.4 M715.1,572.4h6.4
		 M711.1,575.6h6.4 M716.4,579h6.4 M728.3,572.4h6.4 M722.7,575h6.4 M667.6,573.8h6.4 M695.4,578.5h6.4 M680.9,582.8h6.4
		 M693.3,584.2h6.4 M671.4,579.1h6.4 M681.8,572.5h6.4 M677.7,575.2h6.4 M685,579.9h6.4 M689.3,574.6h6.4 M638.8,581.3h6.4
		 M661.3,577.3h6.4 M658.3,584.9h6.4 M648.8,582.5h6.4 M669.9,584.3h6.4 M659.9,581.3h6.4 M637.3,578h6.4 M643.6,574h6.4
		 M648.9,577.4h6.4 M655.2,573.4h6.4 M614.5,585h6.4 M626.9,578.3h6.4 M626.5,585.2h6.4 M615.7,581.4h6.4 M638.1,584.7h6.4
		 M628.6,582.3h6.4 M605.5,578.3h6.4 M618.3,576.9h6.4 M576.5,585.7h6.4 M630.6,574.9h6.4 M590.6,584.8h6.4 M582.9,581.7h6.4
		 M604,583.5h6.4 M594,580.5h6.4 M543.1,585.3h6.4 M536.8,589.2h6.4 M547.4,588.7h6.4 M559,583.7h6.4 M555,586.8h6.4 M549.6,582.7
		h6.4 M558.3,590.6h6.4 M570.6,583.1h6.4 M566.6,586.2h6.4 M542.9,592.4h6.4 M533.2,592.4h6.4 M501.4,592.1h6.4 M510.2,585.2h6.4
		 M511.7,592.5h6.4 M514.6,589.6h6.4 M524.9,582.5h6.4 M520.9,585.7h6.4 M516.1,581.9h6.4 M526.2,589h6.4 M536.4,582.4h6.4
		 M532.5,585.1h6.4 M522.1,592.7h6.4 M474.8,584.5h6.4 M468.5,588.4h6.4 M480.4,590h6.4 M490.7,582.9h6.4 M486.7,586h6.4
		 M481.1,580.5h6.4 M491.9,589.4h6.4 M502.3,582.3h6.4 M498.3,585.5h6.4 M492.7,579.9h6.4 M469.6,576h6.4 M479.5,577.6h6.4
		 M503.1,588.2h6.4 M437.4,587.5h6.4 M440.7,583.3h6.4 M437.1,578.1h6.4 M460.6,575.3h6.4 M446.3,588.8h6.4 M456.6,581.7h6.4
		 M452.6,584.9h6.4 M447,579.3h6.4 M457.9,588.2h6.4 M468.2,581.1h6.4 M464.2,584.3h6.4 M458.2,578.1h6.4 M435.5,575.1h6.4
		 M449.3,576h6.4 M407.3,582.9h6.4 M401,586.8h6.4 M412.8,588.4h6.4 M423.2,581.3h6.4 M419.2,584.5h6.4 M413.6,578.9h6.4
		 M424.4,587.8h6.4 M434.8,580.7h6.4 M430.8,583.9h6.4 M423.8,576.4h6.4 M407.4,576.1h6.4 M301.9,586.7h6.4 M370.9,579.9h6.4
		 M369.6,576.5h6.4 M378.7,587.2h6.4 M389.1,580.1h6.4 M385.1,583.3h6.4 M379.5,577.7h6.4 M390.3,586.7h6.4 M400.7,579.5h6.4
		 M396.7,582.7h6.4 M390.6,576.5h6.4 M373.7,573.3h6.4 M341.4,582.1h6.4 M335.1,586h6.4 M360.2,572.9h6.4 M346.9,587.6h6.4
		 M357.3,580.5h6.4 M353.3,583.7h6.4 M347.7,578.1h6.4 M358.5,587h6.4 M368.6,585.9h6.4 M364.9,583.1h6.4 M359.3,577.5h6.4
		 M336.2,573.6h6.4 M339.4,570.7h6.4 M347.8,573h6.4 M306.5,584.1h6.4 M307.3,580.9h6.4 M303.7,575.7h6.4 M326.1,571.7h6.4
		 M312.8,586.5h6.4 M323.2,579.3h6.4 M319.2,582.5h6.4 M313.6,576.9h6.4 M324.4,585.9h6.4 M334.7,578.7h6.4 M330.8,581.9h6.4
		 M324.7,575.7h6.4 M302.1,572.4h6.4 M313.7,571.8h6.4 M273.9,580.5h6.4 M267.6,584.4h6.4 M292.7,571.3h6.4 M279.4,586h6.4
		 M289.7,578.9h6.4 M285.8,582.1h6.4 M280.2,576.5h6.4 M291,585.5h6.4 M301.3,578.3h6.4 M297.4,581.5h6.4 M291.8,575.9h6.4
		 M270.7,574.3h6.4 M280.3,571.4h6.4 M268.9,570.6h6.4 M230.8,565.5h6.4 M239.8,579.3h6.4 M236.1,574.1h6.4 M258.6,570.1h6.4
		 M253.6,578.6h6.4 M249.4,582.2h6.4 M248.9,574.6h6.4 M257.8,583.8h6.4 M267.2,577.1h6.4 M263.3,580.3h6.4 M260.5,574h6.4
		 M234.6,570.8h6.4 M237.8,568h6.4"/>
</g>
<path id="soil" fill="#F2E5BF" stroke="#000"  stroke-width="1.5" d="M566.1,532.8c0.9-5,7.8-7.2,21.6-9.6c2-0.4,4-1,6.1-1
	c1.7-0.1,3.1,0.4,4.6,0.5c6.2,0.5,12.6-0.5,46.8-9.4c47.8-4.8,90.8-14.8,138.6-40.2c7.5-3.7,15-7.3,22.5-11
	c-7.6,12.1-15.3,24.2-22.9,36.3c-76.3,22-146.7,32.1-217.5,35.4C565.9,533.5,566,533.3,566.1,532.8L566.1,532.8z M535.3,534.9
	c-111.3,2.3-226.1-10.5-369.6-19.3c-0.7-3.3-1.5-6.5-2.2-9.8c20.9,1,41.8,1.9,62.7,2.9c2.2,0.1,4.3,0,6.5,0.3
	c0.4,0.1,0.7,0.4,1.1,0.6c11.7,6.2,24.5,7,46.6,4.7c1.5-0.2,5.4-2,10.8-1c2.7,0.5,2.7,1.7,5.2,2.4c28.5,8.5,150.2,6.5,221.9,8.9
	c3.5-1.3,12.8,1.2,13.8,4.4C532.8,531.1,534.1,533.3,535.3,534.9L535.3,534.9z"/>
<path id="stream" fill="#99FFFF" stroke="#000"  stroke-width="1.5" d="M565.8,533.9c-3.2,10.9-22,12.1-30.5,1
	C545.5,534.7,555.7,534.4,565.8,533.9z"/>
<path id="bedrock" fill="#BFBF9E" stroke="#000"  stroke-width="1.5" d="M150.5,486.6c11.8-5.6,10.9,30.2,21.9,42.9
	c9.7,39.6,15,49.2,27.6,63.4c2.8,19.1,7.5,34.9,14.9,45.7c5,6.4,15.5,8.8,32.5,9.7c29.2,11.8,60.8,11,98.4,4.4
	c49.5-15.7,99-12.4,148.5,5.3C518,669,545,674.7,576,673.7c34,11.7,68,12.7,101.9,11.4c12.9,2.6,20.8-12.9,27.2-33.4
	c12.7-34.2,32.1-34.3,34.3-63.3c2.5-9.8,6.5-19.5,13.7-29.3c5.4-7.6,10.8-18.1,16.2-34.9c15.1-31,33.7-56.8,51.2-84.4
	c0,94,0,188,0,282.1c-223.3,0-446.7,0-670,0C150.5,643.6,150.5,565.1,150.5,486.6L150.5,486.6z"/>
<g id="Arrows">
	<g id="g2895">
		<path id="Curve13" fill="#145BB8" d="M267.8,549.4l-0.1,1.6l-1.6-0.2l-1.6-0.2l-1.7-0.1l-1.7-0.1l-1.7-0.1l-1.7-0.1l-1.7-0.2
			l-1.7-0.2l-1.7-0.2l-1.7-0.2l-1.7-0.2l-1.7-0.2l-1.7-0.2l-1.7-0.3l-1.7-0.3l-1.7-0.3l-1.7-0.4l-1.7-0.4l-1.7-0.4l-1.7-0.5
			l-1.6-0.5l-1.6-0.6l-1.6-0.6l-1.6-0.7l-1.6-0.7l-1.6-0.8l-1.6-0.9l-1.6-0.9l-1.6-1l-1.6-1.1l-1.5-1.1l-1.5-1.2l0.9-1.3l1.5,1.2
			l1.5,1.1l1.5,1l1.5,1l1.5,0.9l1.5,0.8l1.6,0.8l1.6,0.7l1.6,0.7l1.6,0.6l1.6,0.6l1.6,0.5l1.6,0.5l1.6,0.4l1.6,0.4l1.6,0.4l1.6,0.3
			l1.7,0.3l1.7,0.3l1.7,0.2l1.7,0.2l1.7,0.2l1.7,0.2l1.7,0.2l1.7,0.2l1.7,0.2l1.7,0.1l1.7,0.1l1.7,0.1l1.7,0.1l1.7,0.2L267.8,549.4
			L267.8,549.4z M273.7,550.8l-12.3,3.8l0.2-0.3l0.2-0.3l0.2-0.3l0.2-0.3l0.1-0.3l0.1-0.3l0.1-0.3l0.1-0.3l0.1-0.3l0.1-0.3l0.1-0.3
			l0.1-0.3l0.1-0.3l0.1-0.3l0-0.3l0-0.3l0-0.3l0-0.3l0-0.3l0-0.3l0-0.3l0-0.3l0-0.3l0-0.3l-0.1-0.3l-0.1-0.3l-0.1-0.3l-0.1-0.3
			l-0.1-0.3l-0.1-0.3l-0.1-0.3l-0.1-0.3l0,0L273.7,550.8L273.7,550.8z"/>
	</g>
	<g id="g2898">
		<path id="Curve12" fill="#145BB8" d="M266.9,623.5l0,1.7l-2.3-0.1l-2.3-0.2l-2.3-0.3l-2.2-0.3l-2.2-0.4l-2.2-0.5l-2.2-0.6
			l-2.1-0.6l-2.1-0.7l-2-0.8l-2-0.8l-2-0.9l-1.9-1l-1.9-1l-1.8-1.1l-1.7-1.1l-1.7-1.2l-1.6-1.2l-1.6-1.3l-1.5-1.3l-1.4-1.3l-1.3-1.4
			l-1.2-1.4l-1.2-1.5l-1.1-1.5l-1-1.5l-0.9-1.5l-0.8-1.6l-0.7-1.6l-0.6-1.6l-0.5-1.6l-0.4-1.7l1.5-0.3l0.3,1.5l0.5,1.5l0.6,1.5
			l0.7,1.5l0.8,1.5l0.8,1.5l0.9,1.4l1,1.4l1.1,1.4l1.2,1.4l1.3,1.3l1.4,1.3l1.4,1.3l1.5,1.2l1.6,1.2l1.6,1.1l1.7,1.1l1.8,1l1.8,1
			l1.9,0.9l1.9,0.9l2,0.8l2,0.8l2,0.7l2.1,0.6l2.1,0.5l2.1,0.5l2.2,0.4l2.2,0.3l2.2,0.2l2.2,0.2L266.9,623.5L266.9,623.5z
			 M272.8,624.4l-11.9,4.8l0.2-0.3l0.1-0.3l0.1-0.3l0.1-0.3l0.1-0.3l0.1-0.3l0.1-0.3l0.1-0.3l0.1-0.3l0.1-0.3l0.1-0.3l0.1-0.3l0-0.3
			l0-0.3l0-0.3l0-0.3l0-0.3l0-0.3l0-0.3l0-0.3l0-0.3l0-0.3l-0.1-0.3l-0.1-0.3l-0.1-0.3l-0.1-0.3l-0.1-0.3l-0.1-0.3l-0.1-0.3
			l-0.1-0.3l-0.1-0.3l-0.1-0.3l0,0L272.8,624.4L272.8,624.4z"/>
	</g>
	<g id="g2901">
		<path id="Curve11" fill="#145BB8" d="M203.7,546.8l-0.4,1.6l-1.5-0.4l-1.4-0.5l-1.3-0.5l-1.3-0.5l-1.2-0.6l-1.1-0.6l-1.1-0.6
			l-1-0.7l-0.9-0.7l-0.9-0.7l-0.8-0.7l-0.8-0.7l-0.7-0.7l-0.7-0.7l-0.7-0.8l-0.6-0.8l-0.6-0.8l-0.6-0.8l-0.5-0.8l-0.5-0.8l-0.5-0.8
			l-0.5-0.8l-0.4-0.7l-0.4-0.7l-0.4-0.7l-0.4-0.7l-0.4-0.7l-0.4-0.7l-0.4-0.6L181,528l-0.4-0.6l-0.4-0.6l1.2-1l0.4,0.6l0.4,0.6
			l0.4,0.7l0.4,0.7l0.4,0.7l0.4,0.7l0.4,0.7l0.4,0.7l0.4,0.7l0.4,0.7l0.4,0.7l0.5,0.7l0.5,0.7l0.5,0.7l0.5,0.7l0.6,0.7l0.6,0.7
			l0.6,0.7l0.7,0.7l0.7,0.7l0.7,0.7l0.8,0.7l0.8,0.7l0.9,0.6l0.9,0.6l1,0.6l1.1,0.6l1.1,0.5l1.2,0.5l1.3,0.5l1.3,0.5L203.7,546.8
			L203.7,546.8z M209.2,549.2l-12.8,1.7l0.2-0.3l0.2-0.3l0.2-0.3l0.2-0.3l0.2-0.3l0.2-0.3l0.2-0.3l0.2-0.3l0.2-0.3l0.1-0.3l0.1-0.3
			l0.1-0.3l0.1-0.3l0.1-0.3l0.1-0.3l0.1-0.3l0.1-0.3l0.1-0.3l0.1-0.3l0.1-0.3l0-0.3l0-0.3l0-0.3l0-0.3l0-0.3l0-0.3l0-0.3l0-0.3
			l0-0.3l0-0.3l-0.1-0.3l-0.1-0.3l0,0L209.2,549.2L209.2,549.2z"/>
	</g>
	<g id="g2904">
		<path id="Curve10" fill="#145BB8" d="M450,621.3l0.6,1.5l-1.3,0.5l-1.4,0.5l-1.6,0.5l-1.7,0.5l-1.9,0.4l-2,0.4l-2.1,0.4l-2.2,0.3
			l-2.3,0.3l-2.4,0.3l-2.5,0.2l-2.6,0.2l-2.6,0.2l-2.7,0.1l-2.7,0.1l-2.7,0.1l-2.8,0l-2.8,0l-2.8-0.1l-2.7-0.1l-2.7-0.1l-2.7-0.2
			l-2.6-0.2l-2.6-0.3l-2.5-0.3l-2.5-0.4l-2.4-0.4l-2.3-0.4l-2.2-0.5l-2.1-0.5l-1.9-0.6l-1.8-0.7l0.5-1.6l1.7,0.6l1.9,0.6l2,0.5
			l2.1,0.5l2.2,0.4l2.3,0.4l2.4,0.3l2.5,0.3l2.6,0.3l2.6,0.2l2.7,0.2l2.7,0.1l2.7,0.1l2.7,0.1l2.7,0l2.7,0l2.7-0.1l2.7-0.1l2.6-0.1
			l2.6-0.2l2.5-0.2l2.5-0.2l2.4-0.3l2.3-0.3l2.2-0.3l2.1-0.4l2-0.4l1.8-0.4l1.7-0.4l1.5-0.5l1.4-0.5L450,621.3L450,621.3z
			 M455.6,619.5l-8.5,9.6l0-0.4l0-0.3l0-0.3l0-0.3l0-0.3l0-0.3l-0.1-0.3l-0.1-0.3l-0.1-0.3l-0.1-0.3l-0.1-0.3l-0.1-0.3l-0.1-0.3
			l-0.1-0.3l-0.1-0.3l-0.1-0.3l-0.1-0.3l-0.1-0.3l-0.2-0.3l-0.2-0.3l-0.2-0.3l-0.2-0.3l-0.2-0.3l-0.2-0.3l-0.2-0.2l-0.2-0.2
			l-0.2-0.2l-0.2-0.2l-0.2-0.2l-0.3-0.2l-0.3-0.2l-0.3-0.2l0,0L455.6,619.5L455.6,619.5z"/>
	</g>
	<g id="g2907">
		<path id="Curve9" fill="#145BB8" d="M529.8,546.7l1.4,0.9l-0.8,1l-0.9,1l-0.9,0.9l-0.9,0.9l-0.9,0.8l-1,0.8l-1,0.7l-1,0.7l-1,0.6
			l-1,0.6l-1,0.5l-1,0.5l-1,0.5l-1.1,0.4l-1.1,0.4l-1.1,0.4l-1.1,0.3l-1.1,0.3l-1.1,0.3l-1.1,0.2l-1.1,0.2l-1.1,0.2l-1,0.2l-1,0.1
			l-1,0.1l-1,0.1l-1,0.1l-1,0.1l-1,0.1l-1,0l-0.9,0l-0.9,0l-0.1-1.5l0.9,0l0.9,0l0.9,0l0.9-0.1l1-0.1l1-0.1l1-0.1l1-0.1l1-0.1l1-0.2
			l1-0.2l1-0.2l1-0.2l1-0.2l1-0.3l1-0.3l1-0.3l1-0.4l1-0.4l1-0.4l1-0.5l1-0.5l1-0.5l1-0.6l0.9-0.6l0.9-0.7l0.9-0.7l0.9-0.8l0.9-0.8
			l0.8-0.9l0.8-0.9L529.8,546.7L529.8,546.7z M534.1,542.5l-3.3,12.4l-0.2-0.3l-0.2-0.3l-0.2-0.3l-0.2-0.3l-0.2-0.3l-0.2-0.3
			l-0.2-0.3l-0.2-0.3l-0.2-0.3l-0.2-0.2l-0.2-0.2l-0.2-0.2l-0.2-0.2l-0.2-0.2l-0.2-0.2l-0.2-0.2l-0.3-0.2l-0.3-0.2l-0.3-0.2
			l-0.3-0.2l-0.3-0.2l-0.3-0.2l-0.3-0.1l-0.3-0.1l-0.3-0.1l-0.3-0.1l-0.3-0.1l-0.3-0.1l-0.3-0.1l-0.3-0.1l-0.3-0.1l-0.3-0.1l0,0
			L534.1,542.5L534.1,542.5z"/>
	</g>
	<g id="g2910">
		<path id="Curve8" fill="#145BB8" d="M556.6,595.1l1.6,0.4l-0.5,1.2l-0.5,1.2l-0.5,1.1l-0.6,1.1l-0.6,1.1l-0.7,1l-0.7,1l-0.7,0.9
			l-0.8,0.9L552,606l-0.8,0.8l-0.8,0.8l-0.8,0.8l-0.9,0.7l-0.9,0.7l-0.9,0.7l-0.9,0.6l-0.9,0.6l-0.9,0.6l-0.9,0.6l-0.9,0.5l-0.9,0.5
			l-0.9,0.5l-0.9,0.5l-0.9,0.4l-0.9,0.4l-0.9,0.4l-0.9,0.4l-0.9,0.4l-0.9,0.4l-0.9,0.3l-0.8,0.3l-0.6-1.4l0.8-0.3l0.9-0.3l0.9-0.3
			l0.9-0.4l0.9-0.4l0.9-0.4l0.9-0.4l0.9-0.4l0.9-0.5l0.9-0.5l0.9-0.5l0.9-0.5l0.9-0.5l0.9-0.6l0.9-0.6l0.9-0.6l0.9-0.6l0.8-0.7
			l0.8-0.7l0.8-0.7l0.8-0.8l0.8-0.8l0.7-0.8l0.7-0.9l0.7-0.9l0.7-0.9l0.6-1l0.6-1l0.6-1.1l0.5-1.1l0.5-1.1L556.6,595.1L556.6,595.1z
			 M559.4,589.7l1,12.8l-0.2-0.2l-0.3-0.2l-0.3-0.2l-0.3-0.2l-0.3-0.2l-0.3-0.2l-0.3-0.2l-0.3-0.2l-0.3-0.2l-0.3-0.2l-0.3-0.2
			l-0.3-0.1l-0.3-0.1l-0.3-0.1l-0.3-0.1l-0.3-0.1l-0.3-0.1l-0.3-0.1l-0.3-0.1l-0.3-0.1l-0.3-0.1l-0.3-0.1l-0.3,0l-0.3,0l-0.3,0
			l-0.3,0l-0.3,0l-0.3,0l-0.3,0l-0.3,0l-0.3,0l-0.3,0l0,0L559.4,589.7L559.4,589.7z"/>
	</g>
	<g id="g2913">
		<path id="Curve7" fill="#145BB8" d="M678.1,546.2l1.4-0.1l1.3-0.1l1.3-0.1l1.2-0.2l1.2-0.2l1.1-0.2l1-0.3l1-0.3l1-0.3l0.9-0.3
			l0.9-0.4l0.8-0.4l0.8-0.4l0.8-0.4l0.7-0.5l0.7-0.5l0.7-0.5l0.7-0.5l0.7-0.5l0.6-0.5l0.6-0.6l0.6-0.6l0.6-0.6l0.6-0.6l0.6-0.6
			l0.6-0.6l0.6-0.6l0.6-0.6l0.6-0.6l0.6-0.6l0.6-0.6l0.6-0.6l1,1.1l-0.6,0.6l-0.6,0.6l-0.6,0.6l-0.6,0.6l-0.6,0.6l-0.6,0.6l-0.6,0.6
			l-0.6,0.6l-0.6,0.6l-0.6,0.6l-0.6,0.6l-0.7,0.6l-0.7,0.6l-0.7,0.6l-0.7,0.6l-0.7,0.5l-0.8,0.5l-0.8,0.5l-0.8,0.5l-0.9,0.5
			l-0.9,0.4l-0.9,0.4l-1,0.4l-1,0.3l-1.1,0.3l-1.1,0.3l-1.2,0.2l-1.2,0.2l-1.3,0.2l-1.3,0.1l-1.4,0.1l-1.4,0.1L678.1,546.2
			L678.1,546.2z M672.1,547.2l11.7-5.4l-0.1,0.3l-0.1,0.3l-0.1,0.3l-0.1,0.3l-0.1,0.3l-0.1,0.3L683,544l-0.1,0.3l-0.1,0.3l-0.1,0.3
			l0,0.3l0,0.3l0,0.3l0,0.3l0,0.3l0,0.3l0,0.3l0,0.3l0,0.3l0,0.3l0.1,0.3l0.1,0.3l0.1,0.3l0.1,0.3l0.1,0.3l0.1,0.3l0.1,0.3l0.1,0.3
			l0.1,0.3l0.1,0.3l0.2,0.3l0.2,0.3l0,0L672.1,547.2L672.1,547.2z"/>
	</g>
	<g id="g2916">
		<path id="Curve6" fill="#145BB8" d="M566.3,541.7l0.7,1.1l0.7,1l0.7,1l0.8,0.9l0.8,0.9l0.8,0.8l0.8,0.8l0.9,0.7l0.9,0.7l0.9,0.7
			l0.9,0.6l0.9,0.6l0.9,0.6l1,0.5l1,0.5l1,0.5l1,0.4l1,0.4l1,0.4l1,0.3l1,0.3l1,0.3l1,0.3l1,0.3l1,0.2l1,0.2l1,0.2l0.9,0.2l0.9,0.2
			l0.9,0.2l0.9,0.1l0.9,0.1L595,559l-0.9-0.1l-0.9-0.2l-0.9-0.2l-1-0.2l-1-0.2l-1-0.2l-1-0.2l-1-0.2l-1-0.3l-1-0.3l-1-0.3l-1-0.3
			l-1-0.4l-1-0.4l-1-0.4l-1-0.4l-1-0.5l-1-0.5l-1-0.5l-1-0.6l-1-0.6l-1-0.7l-0.9-0.7l-0.9-0.7l-0.9-0.8l-0.9-0.8l-0.9-0.9l-0.8-0.9
			l-0.8-1l-0.8-1l-0.7-1.1l-0.7-1.1L566.3,541.7L566.3,541.7z M562.5,536.9l10.4,7.5l-0.3,0l-0.3,0l-0.3,0l-0.3,0.1l-0.3,0.1
			l-0.3,0.1l-0.3,0.1l-0.3,0.1L570,545l-0.3,0.1l-0.3,0.1l-0.3,0.1l-0.3,0.1l-0.3,0.1l-0.3,0.2l-0.3,0.2l-0.3,0.2l-0.3,0.2l-0.3,0.2
			l-0.3,0.2l-0.2,0.2l-0.2,0.2l-0.2,0.2l-0.2,0.2l-0.2,0.2l-0.2,0.2l-0.2,0.3l-0.2,0.3l-0.2,0.3l-0.2,0.3l-0.2,0.3l-0.2,0.3l0,0
			L562.5,536.9L562.5,536.9z"/>
	</g>
	<g id="g2919">
		<path id="Curve5" fill="#145BB8" d="M609.3,543l0.8,0.2l0.8,0.2l0.8,0.1l0.9,0.1l0.9,0.1l0.9,0l0.9,0l0.9,0l0.9,0l0.9-0.1l0.9-0.1
			l0.9-0.1l0.9-0.1l0.9-0.1l0.9-0.2l0.9-0.2l0.9-0.2l0.8-0.2l0.8-0.2l0.8-0.2l0.7-0.2l0.7-0.2l0.7-0.3l0.6-0.3l0.6-0.3l0.5-0.3
			l0.5-0.3l0.4-0.3l0.4-0.3l0.3-0.2l0.2-0.2l0.2-0.2l1.2,0.9l-0.3,0.4l-0.4,0.3l-0.4,0.3l-0.5,0.3l-0.5,0.3l-0.6,0.3l-0.6,0.3
			l-0.6,0.3l-0.7,0.3l-0.7,0.3l-0.8,0.3l-0.8,0.3l-0.8,0.2l-0.8,0.2l-0.9,0.2l-0.9,0.2l-0.9,0.2l-0.9,0.2l-0.9,0.1l-0.9,0.1l-1,0.1
			l-1,0.1l-1,0.1l-1,0l-1,0l-1,0l-0.9,0l-0.9-0.1l-0.9-0.1l-0.9-0.1l-0.9-0.2l-0.9-0.2L609.3,543L609.3,543z M603.3,542.1l12.7-1.7
			l-0.2,0.3l-0.2,0.3l-0.2,0.3l-0.2,0.3l-0.2,0.3l-0.2,0.3l-0.2,0.3l-0.2,0.3l-0.2,0.3l-0.1,0.3l-0.1,0.3l-0.1,0.3l-0.1,0.3
			l-0.1,0.3l-0.1,0.3l-0.1,0.3l-0.1,0.3l-0.1,0.3l-0.1,0.3l-0.1,0.3l0,0.3l0,0.3l0,0.3l0,0.3l0,0.3l0,0.3l0,0.3l0,0.3l0,0.3l0,0.3
			l0.1,0.3l0.1,0.3l0,0L603.3,542.1L603.3,542.1z"/>
	</g>
	<g id="g2922">
		<path id="Curve4" fill="#145BB8" d="M580.8,594.2l0.6,1.1l0.6,1l0.7,1l0.7,0.9l0.7,0.9l0.7,0.8l0.8,0.8l0.8,0.7l0.8,0.7l0.8,0.7
			l0.8,0.6l0.9,0.6l0.9,0.5l0.9,0.5l0.9,0.5l0.9,0.4l0.9,0.4l0.9,0.4l0.9,0.4l0.9,0.3l0.9,0.3l0.9,0.3l0.9,0.3l0.9,0.3l0.9,0.2
			l0.9,0.2l0.9,0.2l0.9,0.2l0.9,0.2l0.9,0.2l0.9,0.2l0.9,0.2l-0.4,1.4l-0.9-0.2l-0.9-0.2l-0.9-0.2l-0.9-0.2l-0.9-0.2l-0.9-0.2
			l-1-0.2l-1-0.3l-1-0.3l-1-0.3l-1-0.3l-1-0.3l-1-0.4l-1-0.4l-1-0.4l-1-0.4l-1-0.5l-0.9-0.5l-0.9-0.5l-0.9-0.6l-0.9-0.6l-0.9-0.7
			l-0.9-0.7l-0.9-0.7l-0.8-0.8l-0.8-0.8l-0.8-0.9l-0.8-0.9l-0.7-1l-0.7-1L580,596l-0.6-1.2L580.8,594.2L580.8,594.2z M577.4,589.2
			l9.9,8.2l-0.4,0l-0.3,0l-0.3,0l-0.3,0l-0.3,0l-0.3,0.1l-0.3,0.1l-0.3,0.1l-0.3,0.1l-0.3,0.1l-0.3,0.1l-0.3,0.1l-0.3,0.1l-0.3,0.1
			l-0.3,0.1l-0.3,0.1l-0.3,0.1l-0.3,0.2l-0.3,0.2l-0.3,0.2l-0.3,0.2l-0.3,0.2l-0.3,0.2l-0.2,0.2l-0.2,0.2l-0.2,0.2l-0.2,0.2
			l-0.2,0.2l-0.2,0.3l-0.2,0.3l-0.2,0.3l-0.2,0.3l0,0L577.4,589.2L577.4,589.2z"/>
	</g>
	<g id="g2925">
		<path id="Curve3" fill="#145BB8" d="M676.7,628.4l1.3,0l1.4-0.1l1.4-0.2l1.4-0.3l1.5-0.4l1.5-0.5l1.5-0.6l1.6-0.6l1.6-0.7l1.6-0.8
			l1.6-0.8l1.6-0.9l1.6-0.9l1.6-1l1.5-1l1.5-1l1.5-1.1l1.5-1.1l1.4-1.1l1.4-1.1l1.3-1.2l1.3-1.2l1.2-1.2l1.1-1.2l1.1-1.2l1-1.2
			l0.9-1.1l0.8-1.1l0.7-1.1l0.6-1.1l0.5-1l0.4-1l1.4,0.5l-0.5,1.1l-0.6,1.2l-0.7,1.2l-0.8,1.2l-0.9,1.2l-0.9,1.2l-1,1.2l-1.1,1.2
			l-1.2,1.2l-1.2,1.2l-1.3,1.2l-1.3,1.2l-1.4,1.2l-1.4,1.1l-1.5,1.1l-1.5,1.1L700,621l-1.6,1l-1.6,1l-1.6,0.9l-1.6,0.9l-1.6,0.8
			l-1.6,0.8l-1.6,0.7l-1.6,0.6l-1.6,0.6l-1.6,0.5l-1.5,0.4l-1.5,0.3l-1.5,0.2L678,630l-1.4,0.1L676.7,628.4L676.7,628.4z
			 M670.7,629.2l11.8-5.1l-0.2,0.3l-0.1,0.3l-0.1,0.3l-0.1,0.3l-0.1,0.3l-0.1,0.3l-0.1,0.3l-0.1,0.3l-0.1,0.3l-0.1,0.3l-0.1,0.3
			l0,0.3l0,0.3l0,0.3l0,0.3l0,0.3l0,0.3l0,0.3l0,0.3l0,0.3l0,0.3l0.1,0.3l0.1,0.3l0.1,0.3l0.1,0.3l0.1,0.3l0.1,0.3l0.1,0.3l0.1,0.3
			l0.1,0.3l0.1,0.3l0.2,0.3l0,0L670.7,629.2L670.7,629.2z"/>
	</g>
	<g id="g2928">
		<path id="Curve2" fill="#145BB8" d="M732.3,547.4l1-0.9l1-0.9l1-0.9l0.9-0.9l0.9-0.9l0.9-0.9l0.8-0.9l0.8-0.9l0.8-0.8l0.8-0.8
			l0.7-0.8l0.7-0.8l0.7-0.8l0.7-0.8l0.6-0.8l0.6-0.8l0.6-0.8l0.6-0.8l0.6-0.8l0.5-0.7l0.5-0.7l0.5-0.7l0.5-0.7l0.5-0.7l0.5-0.7
			l0.5-0.6l0.4-0.6l0.4-0.6l0.4-0.6l0.4-0.6l0.4-0.6l0.4-0.5l1.2,1l-0.4,0.5l-0.4,0.6l-0.4,0.6l-0.4,0.6l-0.4,0.6l-0.4,0.6l-0.5,0.7
			l-0.5,0.7l-0.5,0.7l-0.5,0.7l-0.5,0.7l-0.5,0.7l-0.6,0.7l-0.6,0.8l-0.6,0.8l-0.6,0.8l-0.6,0.8l-0.7,0.8l-0.7,0.8l-0.7,0.8L743,539
			l-0.7,0.8l-0.8,0.9l-0.8,0.9l-0.8,0.9l-0.9,0.9l-0.9,0.9l-0.9,0.9l-0.9,0.9l-1,0.9l-1,0.9l-1,0.9L732.3,547.4L732.3,547.4z
			 M728.3,551.9l5.7-11.5l0.1,0.3l0.1,0.3l0.1,0.3l0.1,0.3l0.1,0.3l0.1,0.3l0.1,0.3l0.1,0.3l0.1,0.3l0.2,0.3l0.2,0.3l0.2,0.3
			l0.2,0.3l0.2,0.3l0.2,0.2l0.2,0.2l0.2,0.2l0.2,0.2l0.2,0.2l0.2,0.2l0.2,0.2l0.2,0.2l0.3,0.2l0.3,0.2l0.3,0.2l0.3,0.2l0.3,0.2
			l0.3,0.2l0.3,0.2l0.3,0.2l0.3,0.1l0.3,0.1l0,0L728.3,551.9L728.3,551.9z"/>
	</g>
</g>
<rect id="Rectangle_x0020_perm" x="283.1" y="779.7" fill="#9FD9ED" stroke="#000"  stroke-width=".5" width="57.7" height="35.6"/>
<rect id="Rectangle_x0020_semi" x="283.1" y="840.4" fill="#4794C4" stroke="#000"  stroke-width=".5" width="57.7" height="35.6"/>
<path id="path2933" fill="none" stroke="#074A91"  stroke-width="1.5" d="M294.5,843h6.4 M283.6,842.5h6.4 M305.5,845.6h6.4
	 M311.6,851.8h6.4 M315.5,848.6h6.4 M305.2,855.7h6.4 M294.4,846.8h6.4 M300,852.4h6.4 M303.9,849.2h6.4 M293.6,856.3h6.4
	 M307,842.2h6.4 M284.7,846.9h6.4 M289,850.2h6.4 M285.4,853.3h6.4 M331.3,844h6.4 M322.2,845.6h6.4 M317,843.5h6.4 M332.2,849.1
	h6.4 M334.1,853.5h6.4 M326.5,856.4h6.4 M315.9,855.9h6.4 M322.2,852h6.4 M285.5,866.4h6.4 M297.7,859.8h6.4 M286,860.1h6.4
	 M308.6,863h6.4 M314.6,869.2h6.4 M318.6,866h6.4 M308.3,873.2h6.4 M297.5,864.2h6.4 M303.1,869.8h6.4 M307,866.6h6.4 M296.7,873.7
	h6.4 M311.1,860.3h6.4 M288.6,863.4h6.4 M292.5,869.8h6.4 M286.2,873.3h6.4 M331.6,860.8h6.4 M321.3,861.8h6.4 M331.6,865.4h6.4
	 M334.2,870.8h6.4 M329.8,874h6.4 M319,873.3h6.4 M325.3,869.4h6.4"/>
<rect id="Rectangle_x0020_bedrock" x="283.1" y="903.8" fill="#BFBF9E" stroke="#000"  stroke-width=".5" width="57.7" height="35.6"/>
<g id="g2936">
	<path id="Curve1" fill="#145BB8" d="M287.7,984.5l1.6,0.6l1.6,0.5l1.5,0.4l1.5,0.4l1.4,0.3l1.4,0.3l1.4,0.2l1.3,0.2l1.3,0.1
		l1.3,0.1l1.2,0l1.2,0l1.2,0l1.1-0.1l1.1-0.1l1.1-0.1l1.1-0.1l1.1-0.2l1.1-0.2l1.1-0.2l1-0.2l1-0.2l1-0.3l1-0.3l1-0.3l1-0.3l1-0.3
		l1.1-0.3l1.1-0.3l1.1-0.3l1.1-0.3l1.1-0.3l0.5,1.5l-1.1,0.3l-1.1,0.3l-1.1,0.3l-1,0.3l-1,0.3l-1,0.3l-1.1,0.3l-1.1,0.3l-1.1,0.3
		l-1.1,0.3l-1.1,0.3l-1.1,0.2l-1.1,0.2l-1.1,0.2l-1.1,0.2l-1.2,0.1l-1.2,0.1l-1.2,0.1l-1.2,0.1l-1.2,0l-1.3,0l-1.3-0.1l-1.3-0.1
		l-1.4-0.1l-1.4-0.2l-1.4-0.2l-1.5-0.3l-1.5-0.3l-1.5-0.4l-1.6-0.4l-1.6-0.5l-1.7-0.6L287.7,984.5L287.7,984.5z M281.6,983.3
		l12.8-0.8l-0.3,0.2l-0.2,0.3l-0.2,0.3l-0.2,0.3l-0.2,0.3L293,984l-0.2,0.3l-0.2,0.3l-0.2,0.3l-0.2,0.3l-0.2,0.3l-0.1,0.3l-0.1,0.3
		l-0.1,0.3l-0.1,0.3l-0.1,0.3l-0.1,0.3l-0.1,0.3l-0.1,0.3l-0.1,0.3l-0.1,0.3l-0.1,0.3l0,0.3l0,0.3l0,0.3l0,0.3l0,0.3l0,0.3l0,0.3
		l0,0.3l0,0.3l0,0.3l0,0L281.6,983.3L281.6,983.3z"/>
</g>
<text transform="matrix(1 0 0 1 375.5244 803.4387)" font-family="'Calibri'" font-size="18">High hydraulic-conductivity aquifer</text>
<text transform="matrix(1 0 0 1 375.5244 928.3323)" font-family="'Calibri'" font-size="18">Very low hydraulic-conductivity bedrock</text>
<text transform="matrix(1 0 0 1 375.5244 865.7532)" font-family="'Calibri'" font-size="18">Low hydraulic-conductivity confining unit</text>
<text transform="matrix(1 0 0 1 375.5244 990.9114)" font-family="'Calibri'" font-size="18">Direction of ground-water flow</text>
<text id="text2948" transform="matrix(1 0 0 1 244.4678 480.676)" font-family="'Calibri'" font-size="18">Water table</text>
<text id="text2950" transform="matrix(1 0 0 1 660.8086 462.5149)" font-family="'Calibri'" font-size="18">Water table</text>
<text id="text2952" transform="matrix(1 0 0 1 562.4824 428.9836)" font-family="'Calibri'" font-size="18">Unsaturated zone</text>
<text id="text2954" transform="matrix(1 0 0 1 524.9365 504.428)" font-family="'Calibri'" font-size="14">Stream</text>
<path id="lines" fill="none" stroke="#000"  stroke-width=".5" d="M636.7,436.4l21.1,81.5 M703.3,471.6l17.8,42.4
	 M273.3,488.9l-36,31.5 M549.8,511.6l0.8,22.9"/>
<text id="text2957" transform="matrix(1 0 0 1 434.1875 348.0999)" font-family="'Calibri'" font-size="18">Transpiration</text>
<text id="text2959" transform="matrix(1 0 0 1 432.7939 368.6809)" font-family="'Calibri'" font-size="18">by vegetation</text>
<g id="Trees">
	<g id="middle_x0020_tree">
		<g id="roots_x0020_all_x0020_middle">
			
				<path id="roots_x0020_middle" fill="none" stroke="#290D00"  stroke-width=".5" stroke-linecap="round" stroke-linejoin="round" d="
				M466.6,524c-0.4,0.8-1,2-0.9,2.8c0.1,0.7,1,0.6,1.5,0.9c1.2,0.7,0.9,1.3,0.9,2.8c0,0.8,1.2,1,0.6,1.3c-0.9,0.4-0.1,0.6-1,1.9
				 M467.3,525.9c0.2,0.1,1.1,0.6,1.3,0.7c0.1,0.1,0.3,0.4,0.4,0.6c0.4,0.7,0.7,1.3,1.7,1.3 M469.3,530.3c0.3,0.1,1,0.3,1.3,0.2
				c0.3-0.1,0.1-0.2,0.6-0.2c0.1,0,0.2,0,0.4,0l0.2,0.2c0,0.2,0.4,0.1,0.6,0.2c0.2,0.1,0.4,0.4,0.6,0.6 M464,530.4
				c1,1.4,0.4,0.4,0.6,1.2c0.1,0.5,0.3,1,0.3,1.6c0,0.4-0.1,0.3-0.4,0.4c-0.4,0.1,0,0.1-0.4,0.2 M468,528.8c0.4,0.5,1,0.9,1.3,1.5
				c0.3,0.6,0.6,1.3,1.3,1.7c0.3,0.2,0.1,0.1,0.2,0.6c0,0.4,0.3,0.4,0.4,0.9 M466.4,533.6c-0.7-0.9-0.9-2.4,0-2.9
				c1.6-0.9-0.9-1.8-0.2-3.1c0.2-0.4,0.6-0.4,0.9-0.7c0.8-0.8-0.2-0.8-0.6-1.8c-0.3-0.9,0.5-1-0.9-1.1c0,0.9,0.3,2.4-0.5,2.9
				c-1.1,0.6,0.5,2.7-0.4,3.3c-0.5,0.4-1,0.4-1.5,0.7c-0.2,0.2-0.5,1.2-0.7,1.3"/>
			<path id="root_x0020_middle" fill="#290D00" stroke="#290D00"  stroke-width=".5" d="M465.5,524.2h1.3c0.3,0,0.5,0.2,0.5,0.5
				v1.5c0,0.3-0.2,0.5-0.5,0.5h-1.3c-0.3,0-0.5-0.2-0.5-0.5v-1.5C465,524.4,465.2,524.2,465.5,524.2z"/>
		</g>
		
			<path id="trunk_x0020_middle" fill="none" stroke="#3D1E00" stroke-width="2" stroke-linecap="round" stroke-linejoin="round" d="
			M465.3,476.8l9-6.8 M466.1,524.4l-1-56.4 M455.5,495.1l10.3,10.4l10.5-12.7 M465.3,480.8l-7.2-8.5"/>
		<path id="tree_x0020_middle" fill="#99CC33" d="M463.2,472c-1.9,0-3-0.3-3.3,1.9c-0.1,1-1.8,2.3-2.5,1.2c-0.6-0.9-0.8-3.2-1.7-3.6
			c-4.6-2.2-0.1-2.6,1.2-5c1.6-2.8,1.4-12.9,6.3-12.9c2.6,0,3.5,1.9,5.4,3.4c0.9,0.7,5.2,1.1,4.2,2.8c-2.4,4,12.9,5.4,3.4,11.5
			c-2.7,1.8-4.6,1.3-7.3-0.6C466,468.5,466.9,472.2,463.2,472L463.2,472z M461.1,500.6c-2.9,1-6.9,1.9-9,3.6c-2,1.6-8.4-1.9-8.4,2.3
			c0,0.7,8.8,1.9,10.5,3.1c3.3,2.3,2.6-1.2,4.8-2.3c2.5-1.3,9-0.5,12.2-0.5c2.9,0,7.6,1,9.8-0.9c6.9-6.2,1.8-6.7-6.2-6.7
			c-2,0-4.9-2-6.8-1.1C466.1,499,463.5,500.2,461.1,500.6L461.1,500.6z M465.6,479.9c-2,1.1-17.4-1.2-12.5,4.3c1,1.2,4.1,2.5,5.6,4
			c2,2-3.5,1.7-4.6,1.7c-2.5,0-8.4,2.7-5.7,5.7c4.3,4.8,14.3-3,19.7-1.1c1.1,0.4,2.7,0.1,3.6-0.5c0.8-0.5,2.7,2,5.6,0.8
			c2.4-1,10.2-3.3,6.3-7.1c-1.9-2-3.4-1.6-6-1.6c-3.2,0-8.2,1.2-3.9-1.2c2.9-1.6,10.8-3.4,3.4-6.7
			C470.6,475.5,470.1,478.8,465.6,479.9L465.6,479.9z"/>
	</g>
	<g id="small_x0020_tree">
		<g id="roots_x0020_all_x0020_small">
			
				<path id="roots_x0020_small" fill="none" stroke="#290D00"  stroke-width=".5" stroke-linecap="round" stroke-linejoin="round" d="
				M492.8,523.8c0.2,0.8,0.6,2,0.6,2.8c-0.1,0.7-0.6,0.6-0.9,0.9c-0.7,0.7-0.6,1.3-0.6,2.8c0,0.8-0.7,1-0.3,1.3
				c0.6,0.4,0.1,0.6,0.6,1.9 M492.3,525.6c-0.1,0.1-0.7,0.6-0.8,0.7c-0.1,0.1-0.2,0.4-0.2,0.5c-0.2,0.7-0.4,1.3-1,1.3 M491.1,530
				c-0.2,0.1-0.6,0.3-0.8,0.2c-0.2-0.1-0.1-0.2-0.3-0.2c-0.1,0-0.1,0-0.2,0l-0.1,0.2c0,0.2-0.2,0.1-0.3,0.2
				c-0.1,0.1-0.2,0.4-0.3,0.6 M494.3,530.2c-0.6,1.4-0.3,0.4-0.4,1.2c-0.1,0.5-0.2,1-0.2,1.6c0,0.4,0,0.3,0.2,0.4
				c0.2,0.1,0,0.1,0.2,0.2 M491.9,528.6c-0.3,0.5-0.6,0.9-0.8,1.5c-0.2,0.6-0.4,1.3-0.8,1.7c-0.2,0.2-0.1,0.1-0.1,0.6
				c0,0.4-0.2,0.4-0.2,0.9 M492.9,533.3c0.4-0.9,0.5-2.4,0-2.9c-1-0.9,0.6-1.8,0.1-3.1c-0.1-0.4-0.4-0.4-0.6-0.7
				c-0.5-0.8,0.1-0.8,0.3-1.8c0.2-0.9-0.3-1,0.6-1.1c0,0.9-0.2,2.4,0.3,2.9c0.7,0.6-0.3,2.7,0.2,3.3c0.3,0.4,0.6,0.4,0.9,0.7
				c0.1,0.2,0.3,1.2,0.4,1.3"/>
			<path id="root_x0020_small" fill="#290D00" stroke="#290D00"  stroke-width=".5" d="M492.8,524h0.4c0.3,0,0.5,0.2,0.5,0.5v1.5
				c0,0.3-0.2,0.5-0.5,0.5h-0.4c-0.3,0-0.5-0.2-0.5-0.5v-1.5C492.3,524.2,492.5,524,492.8,524z"/>
		</g>
		<path id="trunk_x0020_small" fill="none" stroke="#3D1E00"  stroke-width="1.5" stroke-linejoin="round" d="M493.1,518.6l6-7.3
			 M486.9,511.1l6.1,12.9v-24 M493.1,507.7l5.8-4.3"/>
		<path id="tree_x0020_small" fill="#5E9426" d="M488.9,514.4c-3.4,1.1-4.8,2.1-7.6-0.8c-3.5-3.5-4.5-8.7-4-13.5
			c0.6-6.3,13.9-8.5,18.7-10.2c4.8-1.8,5.3,3.1,7.6,6.8c2.6,4.3,9,14.3,4.8,18.5c-2.1,2.2-12.3-2.9-12.7-4.8
			c-0.6-2.6,3.5-1.5,1.4-5.7c-0.8-1.7-0.4-8.4-1.4-5.6c-1.2,3.2-3.3,5.9-3.7,8.4C491.4,510.7,492.7,514.7,488.9,514.4L488.9,514.4z"
			/>
	</g>
	<g id="tall_x0020_tree">
		<g id="roots_x0020_tall_x0020_all">
			
				<path id="roots_x0020_tall" fill="none" stroke="#290D00"  stroke-width=".5" stroke-linecap="round" stroke-linejoin="round" d="
				M510.7,525.1c0.4,0.8,1.1,2,1,2.8c-0.1,0.7-1.1,0.6-1.7,0.9c-1.4,0.7-1,1.3-1,2.8c0,0.8-1.4,1-0.6,1.3c1,0.4,0.1,0.6,1.2,1.9
				 M509.9,526.9c-0.2,0.1-1.3,0.6-1.5,0.7c-0.1,0.1-0.3,0.4-0.4,0.6c-0.4,0.7-0.8,1.3-1.9,1.3 M507.6,531.3
				c-0.3,0.1-1.1,0.3-1.5,0.2c-0.3-0.1-0.2-0.2-0.6-0.2c-0.1,0-0.3,0-0.4,0l-0.2,0.2c0,0.2-0.4,0.1-0.6,0.2
				c-0.2,0.1-0.5,0.4-0.6,0.6 M513.6,531.5c-1.1,1.4-0.5,0.4-0.7,1.2c-0.2,0.5-0.4,1-0.3,1.6c0,0.4,0.1,0.3,0.4,0.4
				c0.4,0.1,0,0.1,0.4,0.2 M509,529.9c-0.5,0.5-1.1,0.9-1.5,1.5c-0.4,0.6-0.7,1.3-1.5,1.7c-0.3,0.2-0.2,0.1-0.2,0.6
				c-0.1,0.4-0.3,0.4-0.4,0.9 M510.9,534.7c0.8-0.9,1-2.4,0-2.9c-1.8-0.9,1-1.8,0.2-3.1c-0.3-0.4-0.7-0.4-1-0.7
				c-1-0.8,0.2-0.8,0.6-1.8c0.4-0.9-0.6-1,1-1.1c0,0.9-0.4,2.4,0.6,2.9c1.2,0.6-0.5,2.7,0.4,3.3c0.6,0.4,1.2,0.4,1.7,0.7
				c0.3,0.2,0.6,1.2,0.8,1.3"/>
			<path id="root_x0020_tall" fill="#290D00" stroke="#290D00"  stroke-width=".5" d="M510.4,525.3h1.6c0.3,0,0.5,0.2,0.5,0.5
				v1.5c0,0.3-0.2,0.5-0.5,0.5h-1.6c-0.3,0-0.5-0.2-0.5-0.5v-1.5C509.9,525.5,510.1,525.3,510.4,525.3z"/>
		</g>
		
			<path id="trunk_x0020_tall" fill="none" stroke="#3D1E00" stroke-width="2.7857" stroke-linecap="round" stroke-linejoin="round" d="
			M511.1,525.1l-1.1-47.2 M510.5,473.7l13.9-12.7 M510,477.9l2.6-25.3 M510.1,481L499,461.6 M510.6,504.3l-15.1-19.4 M510.7,507.1
			l15.6-24.2"/>
		<path id="tree_x0020_tall" fill="#47B02B" d="M500.1,488.3c11.5-6.2-1.1-12.5-5-18.8c-4.2-6.8-8.5,1.8-8.5,6.2
			c0,5.2-1.8,23.5,1.7,26.5c2.8,2.4,5.2-5.7,6.5-6.8c1.5-1.2,3.4-1.3,4.8-2.5C500.1,492.5,502,488.4,500.1,488.3L500.1,488.3z
			 M518.2,471.8c-3.9,3-9.4,8.8-9.4,13.8c0,3.8,5.1,2.8,7,1.6c2.8-1.9,0.5-2.9,5-2.9c3,0,2.7,1.9,5.9,1.9c4.5,0,5.6,9.6,8.7,1.7
			c1.2-3.2-0.1-2.6-0.9-5.7c-0.4-1.4,2.2-7.5,3.3-8.4c2.8-2.3-3.4-5.4-5.4-5.6c-5-0.4,9.1-7.1,4.6-11.5c-3.6-3.6-6.8-3.7-11.2-5.9
			c-1-0.5-3.3-1.3-5.4-1.4c-1.3-4.9-4.3-4.9-9.3-5.2c-6.2-0.4-11.7,1.6-13.8,7c-1.1,2.9-6.4,0-7.6,2.5c-1.4,2.8-4.4,5.5-5.3,7.8
			c-2.6,6.7,3.7,4.1,6.3,2.9c5.7-2.6,4.8,7.9,9.4,7.9c1.3,0,5.2-1.4,5.3-2.8c1.2-2,2.3-2.7,2.3-6.1c0-4.2,3.2-0.3,5.6-1.6
			c0.5-0.3,2.5-3,4.2-5.8c1.3,3,3,6,3,6.9c0,3.1,2.5,3.8,2.5,6.1C522.9,469.7,518.3,471.5,518.2,471.8L518.2,471.8z"/>
	</g>
	<path id="surface" fill="none" stroke="#000"  stroke-width="1.5" d="M566.1,532.8c0.9-5,7.8-7.2,21.6-9.6c2-0.4,4-1,6.1-1
		c1.7-0.1,3.1,0.4,4.6,0.5c6.2,0.5,12.6-0.5,46.8-9.4c47.8-4.8,90.8-14.8,138.6-40.2c7.5-3.7,15-7.3,22.5-11
		c-7.6,12.1-15.3,24.2-22.9,36.3c-76.3,22-146.7,32.1-217.5,35.4C565.9,533.5,566,533.3,566.1,532.8L566.1,532.8z M535.3,534.9
		c-111.3,2.3-226.1-10.5-369.6-19.3c-0.7-3.3-1.5-6.5-2.2-9.8c20.9,1,41.8,1.9,62.7,2.9c2.2,0.1,4.3,0,6.5,0.3
		c0.4,0.1,0.7,0.4,1.1,0.6c11.7,6.2,24.5,7,46.6,4.7c1.5-0.2,5.4-2,10.8-1c2.7,0.5,2.7,1.7,5.2,2.4c28.5,8.5,150.2,6.5,221.9,8.9
		c3.5-1.3,12.8,1.2,13.8,4.4C532.8,531.1,534.1,533.3,535.3,534.9L535.3,534.9z"/>
</g>
<g id="layer">
	<text id="text2983" transform="matrix(1 0 0 1 497.2354 641.1497)" font-family="'Calibri'" font-size="16.7473">Confined aquifer</text>
	<text id="text2985" transform="matrix(1 0 0 1 306.7378 559.2698)" font-family="'Calibri'" font-size="16.7473">Unconfined aquifer</text>
</g>
</svg>
